# xmcd CD database file
#
# Track frame offsets:
#	150
#	2493
#	22378
#	23285
#	46213
#	46815
#	67180
#	67520
#	98945
#	99308
#	119975
#	138360
#	139543
#	163793
#	164410
#	182453
#	183323
#	202910
#	203740
#	220768
#	221618
#	247673
#	248333
#	273328
#	274718
#	306830
#	314075
#
# Disc length: 4522 seconds
#
# Revision: 1
# Processed by: cddbd v1.5.2PL0 Copyright (c) Steve Scherf et al.
# Submitted via: CDex 2.03
#
DISCID=7511a81b
DTITLE=Janet Jackson - janet.
DYEAR=1993
DGENRE=R&B
TTITLE0=Morning
TTITLE1=That's The Way Love Goes
TTITLE2=You Know...
TTITLE3=You Want This
TTITLE4=Be A Good Boy...
TTITLE5=If
TTITLE6=Back
TTITLE7=This Time
TTITLE8=Go On Miss Janet
TTITLE9=Throb
TTITLE10=What'll I Do
TTITLE11=The Lounge
TTITLE12=Funky Big Band
TTITLE13=Racism
TTITLE14=New Agenda
TTITLE15=Love, Pt. 2
TTITLE16=Because Of Love
TTITLE17=Wind
TTITLE18=Again
TTITLE19=Another Lover
TTITLE20=Where Are You Now
TTITLE21=Hold On Baby
TTITLE22=The Body That Loves You
TTITLE23=Rain
TTITLE24=Any Time, Any Place
TTITLE25=Are You Still Up
TTITLE26=Sweet Dreams
EXTD=YEAR: 1993
EXTT0=
EXTT1=
EXTT2=
EXTT3=
EXTT4=
EXTT5=
EXTT6=
EXTT7=
EXTT8=
EXTT9=
EXTT10=
EXTT11=
EXTT12=
EXTT13=
EXTT14=
EXTT15=
EXTT16=
EXTT17=
EXTT18=
EXTT19=
EXTT20=
EXTT21=
EXTT22=
EXTT23=
EXTT24=
EXTT25=
EXTT26=
PLAYORDER=
